<?xml version="1.0" encoding="utf-8"?>
<!-- Generator: Adobe Illustrator 15.1.0, SVG Export Plug-In . SVG Version: 6.00 Build 0)  -->
<!DOCTYPE svg PUBLIC "-//W3C//DTD SVG 1.1//EN" "http://www.w3.org/Graphics/SVG/1.1/DTD/svg11.dtd">
<svg version="1.1" id="Layer_1" xmlns="http://www.w3.org/2000/svg" xmlns:xlink="http://www.w3.org/1999/xlink" x="0px" y="0px"
	 width="50px" height="50.001px" viewBox="0 0 50 50.001" enable-background="new 0 0 50 50.001" xml:space="preserve">
<path fill="#FFFFFF" d="M46.859,37.063c2.054-3.691,3.185-7.896,3.14-12.349c-0.044-4.454-1.259-8.702-3.387-12.285
	c-0.068-0.133-0.135-0.192-0.196-0.259C42.032,4.81,33.956-0.091,24.75,0.001c-9.139,0.091-17.115,5.153-21.417,12.6
	c-0.065,0.067-0.131,0.195-0.19,0.263c-2.055,3.625-3.186,7.83-3.141,12.35C0.14,39.042,11.417,50.138,25.191,50
	c9.139-0.092,17.115-5.153,21.417-12.6C46.728,37.258,46.793,37.191,46.859,37.063 M2.552,26.366l8.425-0.084
	c0.166,3.275,0.852,6.479,1.921,9.484l-7.64,0.077C3.729,32.969,2.786,29.768,2.552,26.366 M5.044,14.478l7.64-0.077
	c-1.082,3.027-1.637,6.176-1.731,9.454l-8.425,0.084C2.693,20.527,3.573,17.308,5.044,14.478 M47.508,23.488l-8.292,0.083
	c-0.166-3.275-0.85-6.412-1.92-9.417l7.507-0.075C46.33,16.879,47.275,20.08,47.508,23.488 M36.798,23.596l-10.577,0.106
	l-0.094-9.436l8.552-0.086C35.887,17.117,36.638,20.253,36.798,23.596 M26.108,11.839l-0.092-9.174
	c3.157,2.523,5.739,5.581,7.532,9.033l-7.441,0.075L26.108,11.839z M23.6,2.822l0.09,8.98l-7.314,0.073
	C18.106,8.448,20.561,5.408,23.6,2.822 M23.715,14.29l0.095,9.436l-10.444,0.105c0.1-3.278,0.781-6.496,1.93-9.456L23.715,14.29z
	 M13.39,26.257l10.444-0.105l0.096,9.502l-8.42,0.084C14.306,32.735,13.555,29.532,13.39,26.257 M23.953,38.075l0.09,8.98
	c-3.096-2.457-5.605-5.515-7.404-8.907L23.953,38.075z M26.462,47.159l-0.091-9.108l7.44-0.075
	C32.021,41.472,29.567,44.573,26.462,47.159 M26.346,35.63l-0.095-9.502l10.578-0.106c-0.1,3.345-0.781,6.562-1.93,9.522
	L26.346,35.63z M39.24,25.998l8.292-0.083c-0.159,3.412-1.045,6.698-2.583,9.529l-7.439,0.075
	C38.52,32.492,39.14,29.276,39.24,25.998 M43.273,11.667l-7.047,0.071c-1.532-3.261-3.72-6.322-6.357-8.85
	C35.297,4.083,40.031,7.245,43.273,11.667 M19.943,2.926c-2.651,2.647-4.707,5.684-6.244,9.043l-7.174,0.072
	C9.677,7.483,14.406,4.158,19.943,2.926 M6.788,38.247l7.114-0.071c1.599,3.328,3.721,6.322,6.424,8.917
	C14.825,45.904,10.029,42.675,6.788,38.247 M30.311,46.926c2.584-2.647,4.706-5.685,6.178-8.977l6.987-0.07
	C40.383,42.304,35.714,45.627,30.311,46.926"/>
</svg>
